<svg width="396" height="218.89488081382018" viewBox="0 0 350 193.46769768898247" class="looka-1j8o68f"><defs id="SvgjsDefs1063"></defs><g id="SvgjsG1064" featurekey="1p4tPl-0" transform="matrix(1.2293642232961615,0,0,1.2293642232961615,113.80365724011709,-3.3192843408301043)" fill="#eaa159"><g xmlns="http://www.w3.org/2000/svg"><path d="M95.4,45C92.8,21.9,73.3,4.5,50,4.5C26.8,4.5,7.3,21.9,4.7,44.9l-1.8-0.2c2.8-23.9,23-42,47.1-42   c24.2,0,44.5,18.1,47.1,42.1L95.4,45z"></path></g><g xmlns="http://www.w3.org/2000/svg"><path d="M15.3,39.1l-1.2-0.5c0.3-0.9,8.4-21.5,15.5-22.7c7.1-1.1,19.6,14.6,20.1,15.3l-1,0.8c-3.5-4.4-13.6-15.6-18.9-14.8   C24.5,18.1,17.5,33.3,15.3,39.1z"></path></g><g xmlns="http://www.w3.org/2000/svg"><path d="M74.9,35.5c0,0-1.2-2.2-2.8-4.5c-2.7-3.9-4.1-4.8-4.6-4.9c-1.7-0.5-6.6,3.5-9.4,6.6l-0.9-0.9c0.1-0.1,1.9-2,4-3.8   c3.1-2.6,5.3-3.6,6.7-3.1c3,0.9,7.7,9.1,8.2,10L74.9,35.5z"></path></g><g xmlns="http://www.w3.org/2000/svg"><path d="M61.7,27.5c-2.4-4-7.1-10.3-9.2-10.3c-2.1,0-6.2,5.1-8.2,8.3l-1.1-0.7c0.6-0.9,5.8-8.9,9.3-8.9c3.5,0,9.6,9.8,10.3,10.9   L61.7,27.5z"></path></g><g xmlns="http://www.w3.org/2000/svg"><path stroke="#eaa159" stroke-width="1.8031" stroke-miterlimit="10" d="M96.3,44.9" fill="#eaa159"></path></g><g xmlns="http://www.w3.org/2000/svg"><path stroke="#eaa159" stroke-width="1.8031" stroke-miterlimit="10" d="M3.8,44.8" fill="#eaa159"></path></g><g xmlns="http://www.w3.org/2000/svg"><g><path d="M56.8,35.1c0.7,5.3-6.1,5.1-6.1,8.3c0,4.1,9.9,4,9.9,9.9c0,8.1-13.3,9.4-13.3,15.7c0,9.3,30.6,11.8,37.5,12.2    c7.4-8.2,11.8-19.1,11.8-31c0-1.8-0.1-3.5-0.3-5.2l-0.1-1.1c0,0-11.9-11.1-41.6-12.2C55.4,32.6,56.7,34,56.8,35.1z"></path><path d="M85.1,82.1l-0.4,0c-3.6-0.2-13-1-21.5-2.8C52,76.8,46.3,73.3,46.3,68.9c0-3.4,3.3-5.5,6.5-7.5c3.4-2.1,6.9-4.4,6.9-8.2    c0-2.7-2.5-3.9-5.1-5.2c-2.3-1.1-4.8-2.3-4.8-4.7c0-1.8,1.6-2.8,3-3.7c2.1-1.3,3.4-2.2,3.1-4.5c0-0.2-0.3-1.1-2-2.9l-1.6-1.6    l2.3,0.1c29.7,1,41.7,12,42.2,12.4l0.2,0.2l0.2,1.4c0.2,1.8,0.3,3.6,0.3,5.3c0,11.7-4.3,22.9-12.1,31.6L85.1,82.1z M56.6,32.7    c0.7,0.9,1,1.6,1.1,2.3c0.5,3.6-2.1,5.2-3.9,6.3c-1.3,0.8-2.2,1.3-2.2,2.1c0,1.2,1.4,2,3.7,3.1c2.7,1.3,6.1,3,6.1,6.8    c0,4.8-4.1,7.4-7.7,9.7c-3,1.9-5.6,3.6-5.6,6c0,3.4,5.3,6.4,15.4,8.6c8.1,1.7,16.9,2.5,20.8,2.7c7.3-8.3,11.3-19,11.3-30.1    c0-1.7-0.1-3.4-0.3-5.1l-0.1-0.7C93.5,42.8,81.9,34,56.6,32.7z"></path></g><g><path d="M29.9,70.9c2-14.3,18.5-11,18.5-16.3c0-6.3-8.7-6.3-8.7-10.4s11.1-6.5,11.1-8.9c0-1.5-1.1-2.8-1.9-3.7    c-30.1,0.3-45,13.2-45,13.2c-0.2,1.8-0.3,3.6-0.3,5.4c0,25.4,20.4,46.1,45.6,46.5C41.3,94.3,27.7,86.7,29.9,70.9z"></path><path d="M55.7,97.7l-6.6-0.1c-12.5-0.2-24.2-5.3-32.9-14.2C7.4,74.5,2.6,62.7,2.6,50.1c0-1.8,0.1-3.7,0.3-5.5l0-0.4l0.3-0.2    c0.2-0.1,3.9-3.3,11.5-6.6c6.9-3,18.5-6.6,34.1-6.8l0.4,0l0.3,0.3c1,1,2.2,2.6,2.2,4.3c0,1.6-2.1,2.7-5,4.1    c-2.6,1.3-6.1,3.1-6.1,4.8c0,1.2,1.2,2,3.2,3.2c2.5,1.4,5.5,3.2,5.5,7.2c0,2.7-2.8,3.6-6.1,4.6c-5,1.6-11.2,3.5-12.4,11.8    c-0.9,6.7,1,12.4,5.6,17.2c4.7,4.7,10.6,6.9,13,7.6L55.7,97.7z M4.6,45.2c-0.2,1.6-0.3,3.3-0.3,4.9c0,12,4.6,23.4,13.1,32    c7,7.2,16,11.7,25.8,13.2c-2.6-1.3-5.5-3.2-8.1-5.8C30,84.3,28,78,29,70.8c1.3-9.4,8.7-11.7,13.6-13.3c3-0.9,4.9-1.6,4.9-2.9    c0-3-2.2-4.3-4.6-5.6c-2-1.2-4.1-2.4-4.1-4.7c0-2.9,3.8-4.8,7.1-6.4c1.4-0.7,3.8-1.9,4-2.5c0-0.8-0.5-1.8-1.4-2.8    C21.4,32.9,6.7,43.6,4.6,45.2z"></path></g></g></g><g id="SvgjsG1065" featurekey="dYASrj-0" transform="matrix(2.8882257418584025,0,0,2.8882257418584025,-4.851352483325015,122.55887129070798)" fill="#ffffff"><path d="M3.4961 12.011700000000001 c0.46875 -1.0254 1.6895 -1.7773 3.0762 -1.7871 l0 1.7383 c-1.9141 0 -3.0176 0.80078 -3.0176 2.9492 l0 5.0879 l-1.875 0 l0 -9.668 l1.8164 0 l0 1.6797 z M17.089937499999998 14.9805 l-0.029297 0.49805 l-7.4902 0 c0.068359 2.1387 1.416 3.1738 3.0176 3.1738 c1.1523 0 2.1094 -0.625 2.5977 -1.6699 l1.6992 0.33203 c-0.68359 1.7969 -2.3145 2.8711 -4.2773 2.8711 c-2.8711 0 -4.873 -1.8555 -4.873 -5.0195 s2.0508 -5.0293 4.8145 -5.0293 c2.627 0 4.5313 1.582 4.541 4.8438 z M12.5586375 11.5625 c-1.4941 0 -2.6172 0.80078 -2.9102 2.4902 l5.5566 0 c-0.15625 -1.6797 -1.2207 -2.4902 -2.6465 -2.4902 z M20.60545 8.193 c-0.66406 0 -1.2305 -0.54688 -1.2305 -1.2207 s0.56641 -1.2109 1.2305 -1.2109 c0.6543 0 1.2109 0.53711 1.2109 1.2109 s-0.55664 1.2207 -1.2109 1.2207 z M19.64845 20 l0 -9.668 l1.8848 0 l0 9.668 l-1.8848 0 z M24.892590625 20 l0 -15 l1.8848 0 l0 15 l-1.8848 0 z M30.13673125 20 l0 -15 l1.8848 0 l0 15 l-1.8848 0 z M41.406271875 10.332 l1.9727 0 l-5.6738 14.219 l-1.9336 0 l1.9922 -4.7949 l-3.7988 -9.4238 l2.0703 0 l2.666 7.3242 z M48.437478125 20.18555 c-2.0703 0 -3.623 -0.91797 -3.9258 -2.6855 l1.6113 -0.45898 c0.23438 1.1523 1.1133 1.7578 2.3047 1.7578 c0.89844 0 1.8652 -0.3418 1.8359 -1.4063 c-0.029297 -1.1426 -1.3379 -1.3281 -2.8906 -1.8066 c-1.3184 -0.40039 -2.5977 -0.94727 -2.5977 -2.666 c0 -1.9141 1.5723 -2.7637 3.4766 -2.7637 c1.7773 0 3.2715 0.75195 3.584 2.5293 l-1.5137 0.37109 c-0.23438 -1.1035 -1.0938 -1.5625 -2.0605 -1.5625 c-0.85938 0 -1.748 0.35156 -1.748 1.2891 c0 1.0156 1.1426 1.25 2.3828 1.5723 c1.5137 0.38086 3.1836 0.91797 3.1836 2.959 c0 2.0801 -1.7285 2.8711 -3.6426 2.8711 z M63.97463125 20.18555 c-2.8223 0 -4.9512 -1.9238 -4.9512 -5.0293 c0 -3.0957 2.1094 -5.0195 4.9512 -5.0195 s4.9414 1.9238 4.9414 5.0195 c0 3.1055 -2.1094 5.0293 -4.9414 5.0293 z M63.95503125 18.6426 c1.7676 0 3.1055 -1.3672 3.1055 -3.4863 c0 -2.1094 -1.3379 -3.4766 -3.1055 -3.4766 c-1.748 0 -3.0664 1.3672 -3.0664 3.4766 c0 2.1191 1.3184 3.4863 3.0664 3.4863 z M76.240221875 10.1367 c2.041 0 3.3887 1.1816 3.3887 3.3496 l0 6.5137 l-1.8848 0 l0 -6.0938 c0 -1.5918 -0.94727 -2.207 -2.041 -2.207 c-1.2891 0 -2.3438 0.78125 -2.3535 2.5879 l0 5.7129 l-1.875 0 l0 -9.668 l1.875 0 l0 1.1914 c0.625 -0.87891 1.6406 -1.3867 2.8906 -1.3867 z M91.171859375 20 c-1.6309 0 -2.6367 -0.97656 -2.6367 -2.6953 l0 -5.498 l-1.9727 0 l0 -1.4746 l0.71289 0 c1.0059 0 1.416 -0.41992 1.416 -1.543 l0 -1.6699 l1.7285 0 l0 3.2129 l2.1875 0 l0 1.4746 l-2.1875 0 l0 5.3027 c0 0.92773 0.53711 1.416 1.2988 1.416 l0.88867 0 l0 1.4746 l-1.4355 0 z M99.1504125 20.18555 c-2.8223 0 -4.9512 -1.9238 -4.9512 -5.0293 c0 -3.0957 2.1094 -5.0195 4.9512 -5.0195 s4.9414 1.9238 4.9414 5.0195 c0 3.1055 -2.1094 5.0293 -4.9414 5.0293 z M99.1308125 18.6426 c1.7676 0 3.1055 -1.3672 3.1055 -3.4863 c0 -2.1094 -1.3379 -3.4766 -3.1055 -3.4766 c-1.748 0 -3.0664 1.3672 -3.0664 3.4766 c0 2.1191 1.3184 3.4863 3.0664 3.4863 z M112.734403125 10.332 l1.875 0 l0 9.668 l-1.7871 0 l-0.048828 -1.25 c-0.61523 0.9082 -1.6504 1.4355 -2.9297 1.4355 c-2.041 0 -3.3887 -1.1816 -3.3887 -3.3496 l0 -6.5039 l1.8848 0 l0 6.0938 c0 1.5723 0.94727 2.1973 2.0508 2.1973 c1.2891 0 2.334 -0.77148 2.3438 -2.5879 l0 -5.7031 z M119.7851625 12.011700000000001 c0.46875 -1.0254 1.6895 -1.7773 3.0762 -1.7871 l0 1.7383 c-1.9141 0 -3.0176 0.80078 -3.0176 2.9492 l0 5.0879 l-1.875 0 l0 -9.668 l1.8164 0 l0 1.6797 z"></path></g></svg>